<svg width="75" height="47" viewBox="0 0 75 47" fill="none" xmlns="http://www.w3.org/2000/svg">
<g id="x / Tab Bar / Item / Style 1: Default">
<g id="Layout">
<g id="Show/Hide Label">
<path id="&#226;&#134;&#179; Label" d="M23.4188 41.416C23.4188 39.8926 22.2586 38.8438 20.6063 38.8438H18.7313V36.6758H22.5985V35.5449H17.4188V44H20.6356C22.2762 44 23.4188 42.9512 23.4188 41.416ZM18.7313 42.8867V39.9395H20.2957C21.4266 39.9395 22.077 40.4668 22.077 41.416C22.077 42.3594 21.4325 42.8867 20.3016 42.8867H18.7313ZM27.5114 44.1172C29.2751 44.1172 30.4353 42.9043 30.4353 40.918C30.4353 38.9375 29.2692 37.7246 27.5114 37.7246C25.7536 37.7246 24.5876 38.9375 24.5876 40.918C24.5876 42.9043 25.7478 44.1172 27.5114 44.1172ZM27.5114 43.0742C26.5212 43.0742 25.8767 42.2891 25.8767 40.918C25.8767 39.5527 26.5212 38.7676 27.5114 38.7676C28.5017 38.7676 29.1462 39.5527 29.1462 40.918C29.1462 42.2891 28.5075 43.0742 27.5114 43.0742ZM35.6939 44H36.9537V37.8359H35.6939V40.3203H32.9049V37.8359H31.6451V44H32.9049V41.3164H35.6939V44ZM39.06 46.2969C40.3432 46.2969 40.9468 45.8164 41.4741 44.3223L43.7885 37.8359H42.4526L40.8882 42.8516H40.8706L39.3061 37.8359H37.935L40.1616 44.0059C40.1616 44.0117 40.0503 44.375 40.0503 44.3867C39.8569 45.0195 39.5464 45.2656 38.9546 45.2656C38.8491 45.2656 38.6382 45.2656 38.5444 45.2422V46.2676C38.6382 46.2852 38.9604 46.2969 39.06 46.2969ZM49.8382 39.8105C49.6625 38.6738 48.7132 37.7246 47.1898 37.7246C45.4378 37.7246 44.3011 38.9844 44.3011 40.918C44.3011 42.8926 45.4378 44.1172 47.2015 44.1172C48.6546 44.1172 49.6683 43.2734 49.85 42.0371H48.6312C48.4554 42.6816 47.9632 43.0566 47.2132 43.0566C46.2289 43.0566 45.5843 42.2539 45.5843 40.918C45.5843 39.6172 46.223 38.7793 47.2015 38.7793C47.9867 38.7793 48.4554 39.2422 48.6195 39.8105H49.8382ZM56.4797 44H57.7336V37.8359H56.4797V44ZM53.3157 40.7305C54.0364 40.7305 54.511 41.1816 54.511 41.8672C54.511 42.5469 54.0422 43.0039 53.3157 43.0039H52.2492V40.7305H53.3157ZM50.9895 44H53.427C54.8508 44 55.7707 43.1738 55.7707 41.8672C55.7707 40.5664 54.8508 39.7402 53.427 39.7402H52.2492V37.8359H50.9895V44Z" fill="#ABABAB"/>
</g>
</g>
<g id="002-gift" clip-path="url(#clip0_1_781)">
<g id="Group">
<g id="Group_2">
<path id="Vector" d="M37.7366 19.1169V31.9997H39.2499V18.5625L37.7366 19.1169Z" fill="#979797"/>
</g>
</g>
<g id="Group_3">
<g id="Group_4">
<path id="Vector_2" d="M28.596 22.4441V29.7151C28.596 30.9752 29.621 32.0003 30.8811 32.0003H36.203V19.6719L28.596 22.4441Z" fill="#979797"/>
</g>
</g>
<g id="Group_5">
<g id="Group_6">
<path id="Vector_3" d="M40.7835 18.1875V32H46.1155C47.3756 32 48.3905 30.9749 48.3905 29.7148V18.1875H40.7835Z" fill="#979797"/>
</g>
</g>
<g id="Group_7">
<g id="Group_8">
<path id="Vector_4" d="M47.1545 10.0157C46.7256 8.83884 45.4293 8.21626 44.2259 8.64998L37.7183 11.0185L39.9334 16.6968L48.4578 13.5945L47.1545 10.0157Z" fill="#979797"/>
</g>
</g>
<g id="Group_9">
<g id="Group_10">
<path id="Vector_5" d="M33.4239 12.5811L27.047 14.9019C25.8618 15.3338 25.2479 16.6413 25.6813 17.8305L26.9838 21.4093L35.6392 18.2593L33.4239 12.5811Z" fill="#979797"/>
</g>
</g>
<g id="Group_11">
<g id="Group_12">
<path id="Vector_6" d="M36.2765 11.543L34.8448 12.064L37.0807 17.7347L38.5125 17.2137L36.2765 11.543Z" fill="#979797"/>
</g>
</g>
<g id="Group_13">
<g id="Group_14">
<path id="Vector_7" d="M40.6049 6.59947C39.7241 5.95526 38.5956 5.82064 37.5899 6.24238C36.5835 6.66264 35.8857 7.55751 35.7236 8.63616L35.4673 10.2161L37.0971 9.62289L37.2306 8.86228C37.3125 8.31481 37.6658 7.86103 38.1769 7.64831C38.6702 7.44087 39.2449 7.49312 39.7062 7.8298C39.9785 8.02907 40.1606 8.16968 40.2601 8.47167L41.6814 7.95432C41.479 7.37216 41.1221 6.97789 40.6049 6.59947Z" fill="#979797"/>
</g>
</g>
<g id="Group_15">
<g id="Group_16">
<path id="Vector_8" d="M33.613 9.27393C32.7956 8.55086 31.6843 8.31361 30.6443 8.63942C29.6029 8.96523 28.8256 9.79165 28.5652 10.8509C28.4123 11.4733 28.4764 12.1049 28.6956 12.681L30.1166 12.1638C29.9985 11.8683 29.9633 11.5433 30.044 11.2155C30.1764 10.6776 30.5707 10.2588 31.0988 10.0937C31.6094 9.93246 32.1777 10.0383 32.6044 10.415L33.2799 11.0125L34.9089 10.4195L33.613 9.27393Z" fill="#979797"/>
</g>
</g>
</g>
</g>
<defs>
<clipPath id="clip0_1_781">
<rect width="26" height="26" fill="white" transform="translate(24 6)"/>
</clipPath>
</defs>
</svg>
