<svg width="75" height="47" viewBox="0 0 75 47" fill="none" xmlns="http://www.w3.org/2000/svg">
<g id="x / Tab Bar / Item / Style 1: Default">
<g id="Layout">
<g id="003-chat" clip-path="url(#clip0_1_764)">
<g id="Group">
<g id="Group_2">
<path id="Vector" d="M37.4492 4.8125C30.3089 4.8125 24.5 9.93775 24.5 16.2383C24.5 18.8998 25.5533 21.4788 27.4702 23.523C27.8496 25.0873 27.3891 26.7446 26.2466 27.8872C25.7688 28.365 26.1067 29.1875 26.7852 29.1875C28.9557 29.1875 31.0482 28.3373 32.6029 26.8376C34.1412 27.3866 35.7688 27.6641 37.4492 27.6641C44.5896 27.6641 50.5 22.5388 50.5 16.2383C50.5 9.93775 44.5896 4.8125 37.4492 4.8125ZM31.457 18.5234C30.1969 18.5234 29.1719 17.4984 29.1719 16.2383C29.1719 14.9782 30.1969 13.9531 31.457 13.9531C32.7171 13.9531 33.7422 14.9782 33.7422 16.2383C33.7422 17.4984 32.7171 18.5234 31.457 18.5234ZM37.5508 18.5234C36.2907 18.5234 35.2656 17.4984 35.2656 16.2383C35.2656 14.9782 36.2907 13.9531 37.5508 13.9531C38.8109 13.9531 39.8359 14.9782 39.8359 16.2383C39.8359 17.4984 38.8109 18.5234 37.5508 18.5234ZM43.6445 18.5234C42.3844 18.5234 41.3594 17.4984 41.3594 16.2383C41.3594 14.9782 42.3844 13.9531 43.6445 13.9531C44.9046 13.9531 45.9297 14.9782 45.9297 16.2383C45.9297 17.4984 44.9046 18.5234 43.6445 18.5234Z" fill="#979797"/>
</g>
</g>
</g>
<g id="Show/Hide Label">
<path id="&#226;&#134;&#179; Label" d="M34.6964 43V34.5449H33.3839V38.0488C33.0148 38.418 32.3409 38.7695 31.421 38.7695C30.1027 38.7695 29.3878 38.0137 29.3878 36.7773V34.5449H28.0753V36.8242C28.0753 38.582 29.1886 39.9414 31.3038 39.9414C32.212 39.9414 32.9093 39.625 33.3019 39.3203H33.3839V43H34.6964ZM38.4961 42.1035C37.8164 42.1035 37.3711 41.752 37.3711 41.2129C37.3711 40.6855 37.7988 40.3516 38.5547 40.2988L40.0723 40.2051V40.6914C40.0723 41.4941 39.3809 42.1035 38.4961 42.1035ZM38.1445 43.1055C38.9531 43.1055 39.7324 42.6719 40.0898 41.9863H40.1191V43H41.332V38.752C41.332 37.5156 40.377 36.7246 38.8828 36.7246C37.3594 36.7246 36.4102 37.5449 36.3398 38.6582H37.5352C37.6465 38.1074 38.1035 37.7559 38.8359 37.7559C39.6094 37.7559 40.0723 38.166 40.0723 38.8516V39.3262L38.3848 39.4258C36.9199 39.5078 36.0938 40.1699 36.0938 41.248C36.0938 42.3555 36.9375 43.1055 38.1445 43.1055ZM47.3759 36.8359H42.2489V37.8379H44.1825V43H45.4423V37.8379H47.3759V36.8359Z" fill="#ABABAB"/>
</g>
</g>
</g>
<defs>
<clipPath id="clip0_1_764">
<rect width="26" height="26" fill="white" transform="translate(24.5 4)"/>
</clipPath>
</defs>
</svg>
