<svg width="75" height="47" viewBox="0 0 75 47" fill="none" xmlns="http://www.w3.org/2000/svg">
<g id="x / Tab Bar / Item / Style 1: Default">
<g id="Layout">
<path id="Union" fill-rule="evenodd" clip-rule="evenodd" d="M38.1494 4.17765C37.7754 3.85831 37.2247 3.8583 36.8507 4.17765L24.8515 14.4232C24.4679 14.7507 24.3882 15.3126 24.6657 15.7338L25.6601 17.2432C25.9909 17.7454 26.6871 17.8441 27.1445 17.4535L27.8613 16.8415V29.0618C27.8613 29.6141 28.309 30.0618 28.8613 30.0618H33.8718C34.4241 30.0618 34.8718 29.6141 34.8718 29.0618V22.0829C34.8718 21.5306 35.3195 21.0829 35.8718 21.0829H39.1297C39.682 21.0829 40.1297 21.5306 40.1297 22.0829V29.0618C40.1297 29.6141 40.5774 30.0618 41.1297 30.0618H46.1402C46.6925 30.0618 47.1402 29.6141 47.1402 29.0618V16.8428L47.8555 17.4535C48.3129 17.8441 49.0091 17.7454 49.3399 17.2432L50.3343 15.7338C50.6118 15.3126 50.5321 14.7507 50.1486 14.4232L38.1494 4.17765Z" fill="#979797"/>
<g id="Show/Hide Label">
<path id="&#226;&#134;&#179; Label" d="M17.6869 43.0618V35.7493H21.5365V34.6068H16.3685V43.0618H17.6869ZM23.3381 40.2552L23.508 37.8997H25.4065V43.0618H26.6662V36.8978H22.3948L22.1838 40.2025C22.1135 41.2747 21.9026 41.9896 21.3049 41.9896C21.1467 41.9896 21.0295 41.9603 20.9709 41.9427V43.056C21.0471 43.0853 21.1936 43.1204 21.3987 43.1204C22.7815 43.1204 23.2209 42.0013 23.3381 40.2552ZM30.3077 42.1653C29.628 42.1653 29.1827 41.8138 29.1827 41.2747C29.1827 40.7474 29.6105 40.4134 30.3663 40.3607L31.8839 40.2669V40.7532C31.8839 41.556 31.1925 42.1653 30.3077 42.1653ZM29.9562 43.1673C30.7648 43.1673 31.5441 42.7337 31.9015 42.0482H31.9308V43.0618H33.1437V38.8138C33.1437 37.5775 32.1886 36.7864 30.6945 36.7864C29.171 36.7864 28.2218 37.6068 28.1515 38.72H29.3468C29.4581 38.1693 29.9152 37.8177 30.6476 37.8177C31.421 37.8177 31.8839 38.2278 31.8839 38.9134V39.388L30.1964 39.4876C28.7316 39.5696 27.9054 40.2318 27.9054 41.3099C27.9054 42.4173 28.7491 43.1673 29.9562 43.1673ZM37.1367 37.8177C37.752 37.8177 38.0859 38.1048 38.0859 38.6146C38.0859 39.1595 37.7285 39.4349 37.0137 39.4349H35.8418V37.8177H37.1367ZM37.0957 40.3196C37.9277 40.3196 38.3379 40.6243 38.3379 41.2337C38.3379 41.8255 37.9512 42.1419 37.2363 42.1419H35.8418V40.3196H37.0957ZM34.5938 43.0618H37.4297C38.7656 43.0618 39.5977 42.3704 39.5977 41.2864C39.5977 40.513 39.0703 39.9505 38.2734 39.845V39.7982C38.8652 39.6868 39.3223 39.1068 39.3223 38.4681C39.3223 37.4954 38.5957 36.8978 37.3945 36.8978H34.5938V43.0618ZM44.8915 43.0618H46.1512V36.8978H44.8915V39.3821H42.1024V36.8978H40.8427V43.0618H42.1024V40.3782H44.8915V43.0618ZM49.8045 42.1653C49.1248 42.1653 48.6795 41.8138 48.6795 41.2747C48.6795 40.7474 49.1072 40.4134 49.863 40.3607L51.3806 40.2669V40.7532C51.3806 41.556 50.6892 42.1653 49.8045 42.1653ZM49.4529 43.1673C50.2615 43.1673 51.0408 42.7337 51.3982 42.0482H51.4275V43.0618H52.6404V38.8138C52.6404 37.5775 51.6853 36.7864 50.1912 36.7864C48.6677 36.7864 47.7185 37.6068 47.6482 38.72H48.8435C48.9548 38.1693 49.4119 37.8177 50.1443 37.8177C50.9177 37.8177 51.3806 38.2278 51.3806 38.9134V39.388L49.6931 39.4876C48.2283 39.5696 47.4021 40.2318 47.4021 41.3099C47.4021 42.4173 48.2459 43.1673 49.4529 43.1673ZM56.4284 39.9739C55.7135 39.9739 55.2448 39.5579 55.2448 38.972C55.2448 38.304 55.7077 37.8939 56.4284 37.8939H57.5475V39.9739H56.4284ZM57.5475 43.0618H58.7897V36.8978H56.3639C54.9225 36.8978 53.985 37.6946 53.985 38.9778C53.985 39.8392 54.5123 40.4778 55.3678 40.7298L53.6862 43.0618H55.1159L56.61 40.9466H57.5475V43.0618Z" fill="#ABABAB"/>
</g>
</g>
</g>
</svg>
