<svg width="75" height="47" viewBox="0 0 75 47" fill="none" xmlns="http://www.w3.org/2000/svg">
<g id="x / Tab Bar / Item / Style 1: Default">
<g id="Layout">
<g id="005-wallet">
<g id="Group 64">
<path id="Subtract" fill-rule="evenodd" clip-rule="evenodd" d="M29 12C27.3431 12 26 13.3431 26 15V26C26 27.6569 27.3431 29 29 29H45C46.6569 29 48 27.6569 48 26V24H42.5C40.567 24 39 22.433 39 20.5C39 18.567 40.567 17 42.5 17H48V15C48 13.3431 46.6569 12 45 12H29Z" fill="#979797"/>
<path id="Vector 24" d="M41.692 6.95453L35.8309 10.2514C35.4721 10.4532 35.6154 11 36.027 11H44.7526C45.0721 11 45.2626 10.6439 45.0854 10.3781L43.0143 7.2714C42.7242 6.83625 42.1478 6.69813 41.692 6.95453Z" fill="#979797"/>
<path id="Vector 25" d="M30.9657 11H31.738C31.9098 11 32.0786 10.9558 32.2283 10.8716L39.4943 6.78446C39.7384 6.64713 39.7694 6.30787 39.5543 6.12855L37.7016 4.58463C37.3042 4.25352 36.72 4.28002 36.3543 4.64574L30.6828 10.3172C30.4309 10.5691 30.6093 11 30.9657 11Z" fill="#979797"/>
<path id="Subtract_2" fill-rule="evenodd" clip-rule="evenodd" d="M42.5 18C41.1193 18 40 19.1193 40 20.5C40 21.8807 41.1193 23 42.5 23H49C49.5523 23 50 22.5523 50 22V19C50 18.4477 49.5523 18 49 18H42.5ZM42.5 21C42.7761 21 43 20.7761 43 20.5C43 20.2239 42.7761 20 42.5 20C42.2239 20 42 20.2239 42 20.5C42 20.7761 42.2239 21 42.5 21Z" fill="#979797"/>
</g>
</g>
<g id="Show/Hide Label">
<path id="&#226;&#134;&#179; Label" d="M20.2884 44V35.5449H13.433V44H14.7513V36.6875H18.9818V44H20.2884ZM23.7893 41.1934L23.9592 38.8379H25.8577V44H27.1174V37.8359H22.8459L22.635 41.1406C22.5647 42.2129 22.3537 42.9277 21.7561 42.9277C21.5979 42.9277 21.4807 42.8984 21.4221 42.8809V43.9941C21.4983 44.0234 21.6448 44.0586 21.8498 44.0586C23.2327 44.0586 23.6721 42.9395 23.7893 41.1934ZM30.7589 43.1035C30.0792 43.1035 29.6339 42.752 29.6339 42.2129C29.6339 41.6855 30.0616 41.3516 30.8175 41.2988L32.3351 41.2051V41.6914C32.3351 42.4941 31.6437 43.1035 30.7589 43.1035ZM30.4073 44.1055C31.2159 44.1055 31.9952 43.6719 32.3527 42.9863H32.382V44H33.5948V39.752C33.5948 38.5156 32.6398 37.7246 31.1456 37.7246C29.6222 37.7246 28.673 38.5449 28.6027 39.6582H29.798C29.9093 39.1074 30.3663 38.7559 31.0987 38.7559C31.8722 38.7559 32.3351 39.166 32.3351 39.8516V40.3262L30.6476 40.4258C29.1827 40.5078 28.3566 41.1699 28.3566 42.248C28.3566 43.3555 29.2003 44.1055 30.4073 44.1055ZM39.6387 37.8359H34.5117V38.8379H36.4453V44H37.7051V38.8379H39.6387V37.8359ZM43.1512 38.7441C44.036 38.7441 44.6337 39.4062 44.663 40.3496H41.5809C41.6454 39.418 42.2665 38.7441 43.1512 38.7441ZM44.6571 42.1895C44.4872 42.7285 43.954 43.0918 43.2333 43.0918C42.2196 43.0918 41.5751 42.3828 41.5751 41.3105V41.2344H45.9286V40.8008C45.9286 38.9316 44.8622 37.7246 43.1512 37.7246C41.411 37.7246 40.2977 39.0137 40.2977 40.9473C40.2977 42.8926 41.3934 44.1172 43.204 44.1172C44.6161 44.1172 45.6825 43.3145 45.8583 42.1895H44.6571ZM52.7927 40.7305L55.3181 37.8359H53.824L51.5857 40.4727H51.5388V37.8359H50.2908V40.4727H50.2498L48.0115 37.8359H46.5056L49.0486 40.7539L46.4353 44H47.9822L50.2498 41.1582H50.2908V44H51.5388V41.1582H51.5857L53.8533 44H55.4236L52.7927 40.7305ZM57.5827 44L60.4303 39.6699H60.4772V44H61.7252V37.8359H60.4772L57.6295 42.1543H57.5827V37.8359H56.3346V44H57.5827Z" fill="#ABABAB"/>
</g>
</g>
</g>
</svg>
