<svg width="75" height="47" viewBox="0 0 75 47" fill="none" xmlns="http://www.w3.org/2000/svg">
<g id="x / Tab Bar / Item / Style 1: Default">
<g id="Layout">
<g id="003-shopping-bag-1">
<g id="Group 63">
<path id="Vector 30" d="M33.9945 9.86748L34.4358 12.0742H42.2681L41.3217 8.28874C41.2671 8.07028 41.0491 7.93443 40.8289 7.98161L34.3166 9.37712C34.0932 9.42499 33.9497 9.64345 33.9945 9.86748Z" fill="#979797"/>
<path id="Subtract" fill-rule="evenodd" clip-rule="evenodd" d="M39.2026 7.47582L39.546 6.21639C39.6065 5.99485 39.8406 5.86955 40.0584 5.94217L45.5717 7.77992C45.77 7.84601 45.8839 8.05363 45.8332 8.2564L44.9607 11.7465C44.9134 11.9358 44.7365 12.0633 44.542 12.0483L43.0949 11.937L42.1322 8.08623C41.9683 7.43082 41.3145 7.02327 40.6539 7.16482L39.2026 7.47582ZM38.2068 11.2389C38.2008 11.1891 38.204 11.1371 38.2182 11.0851L38.7076 9.29069L40.6091 8.88322L41.198 11.2389H38.2068Z" fill="#979797"/>
<path id="Subtract_2" fill-rule="evenodd" clip-rule="evenodd" d="M33.5243 11.7766L33.1752 10.0313C33.0408 9.35919 33.4713 8.70379 34.1414 8.56018L38.2406 7.6818L38.0183 5.37191C38.0052 5.26096 37.9485 5.15963 37.8607 5.09052C37.7728 5.02141 37.6619 4.98981 37.5504 5.0029L30.5046 5.8357C30.2737 5.8631 30.1086 6.07242 30.1359 6.30357L30.7758 11.7182C30.8012 11.9326 30.983 12.0902 31.1936 12.0902C32.0067 11.7732 32.7823 11.7197 33.5243 11.7766ZM38.4017 9.35608L34.8944 10.1076L35.1207 11.2387H38.5828L38.4017 9.35608Z" fill="#979797"/>
<path id="Vector 31" d="M33.991 9.85016L34.4358 12.074H42.268L41.3175 8.27195C41.2652 8.06274 41.0565 7.93266 40.8456 7.97784L34.2994 9.3806C34.0855 9.42644 33.9481 9.63564 33.991 9.85016Z" fill="#979797"/>
<path id="Subtract_3" fill-rule="evenodd" clip-rule="evenodd" d="M46.7994 11.3025C47.0238 11.3025 47.2086 11.4782 47.2202 11.7021L48.0628 28.1312C48.0686 28.2466 48.0269 28.3593 47.9475 28.4429C47.8675 28.5266 47.7571 28.574 47.6417 28.574H27.4213C27.3058 28.574 27.1954 28.5265 27.1158 28.4429C27.0363 28.3593 26.9946 28.2465 27.0006 28.1312L27.8431 11.7021C27.8547 11.4781 28.0396 11.3025 28.264 11.3025H46.7994ZM39.4272 14.2508C39.4272 13.5539 39.994 12.987 40.6909 12.987C41.3879 12.987 41.9547 13.5539 41.9547 14.2508C41.9547 14.8001 41.6026 15.2686 41.1121 15.4424V16.9888C41.1121 18.9632 39.5059 20.5694 37.5315 20.5694C35.5571 20.5694 33.9508 18.9632 33.9508 16.9888V15.4424C33.4604 15.2685 33.1083 14.8001 33.1083 14.2508C33.1083 13.5539 33.6752 12.987 34.3721 12.987C35.069 12.987 35.6359 13.5539 35.6359 14.2508C35.6359 14.8001 35.2837 15.2686 34.7933 15.4424V16.9887C34.7933 18.4985 36.0216 19.7269 37.5315 19.7269C39.0414 19.7269 40.2697 18.4984 40.2697 16.9887V15.4424C39.7793 15.2686 39.4272 14.8001 39.4272 14.2508ZM41.0558 14.4613C40.9829 14.3354 40.8468 14.2506 40.6909 14.2506H40.6585C40.5145 14.2506 40.3872 14.323 40.3113 14.4333C40.2846 14.3781 40.2697 14.3162 40.2697 14.2509C40.2697 14.0186 40.4587 13.8297 40.6909 13.8297C40.9232 13.8297 41.1122 14.0186 41.1122 14.2509C41.1122 14.3275 41.0916 14.3993 41.0558 14.4613ZM34.7369 14.4614C34.7728 14.3994 34.7933 14.3275 34.7933 14.2509C34.7933 14.0186 34.6044 13.8297 34.3721 13.8297C34.1398 13.8297 33.9509 14.0186 33.9509 14.2509C33.9509 14.3275 33.9714 14.3993 34.0073 14.4613C34.0801 14.3354 34.2163 14.2507 34.3721 14.2507C34.5279 14.2507 34.664 14.3355 34.7369 14.4614Z" fill="#979797"/>
</g>
</g>
<g id="Show/Hide Label">
<path id="&#226;&#134;&#179; Label" d="M21.3841 44V35.5449H14.5287V44H15.847V36.6875H20.0775V44H21.3841ZM25.676 44.1172C27.4397 44.1172 28.5998 42.9043 28.5998 40.918C28.5998 38.9375 27.4338 37.7246 25.676 37.7246C23.9182 37.7246 22.7522 38.9375 22.7522 40.918C22.7522 42.9043 23.9123 44.1172 25.676 44.1172ZM25.676 43.0742C24.6858 43.0742 24.0412 42.2891 24.0412 40.918C24.0412 39.5527 24.6858 38.7676 25.676 38.7676C26.6662 38.7676 27.3108 39.5527 27.3108 40.918C27.3108 42.2891 26.6721 43.0742 25.676 43.0742ZM32.3116 40.7305L35.0421 37.8359H33.5304L31.1163 40.4727H31.0695V37.8359H29.8097V44H31.0695V41.1582H31.1163L33.5597 44H35.1476L32.3116 40.7305ZM36.5566 46.2969C37.8398 46.2969 38.4434 45.8164 38.9707 44.3223L41.2852 37.8359H39.9492L38.3848 42.8516H38.3672L36.8027 37.8359H35.4316L37.6582 44.0059C37.6582 44.0117 37.5469 44.375 37.5469 44.3867C37.3535 45.0195 37.043 45.2656 36.4512 45.2656C36.3457 45.2656 36.1348 45.2656 36.041 45.2422V46.2676C36.1348 46.2852 36.457 46.2969 36.5566 46.2969ZM46.2391 44H47.5048V37.8359H42.2489V44H43.5087V38.8379H46.2391V44ZM51.492 40.7305L54.2224 37.8359H52.7107L50.2966 40.4727H50.2498V37.8359H48.99V44H50.2498V41.1582H50.2966L52.74 44H54.3279L51.492 40.7305ZM56.487 44L59.3346 39.6699H59.3815V44H60.6295V37.8359H59.3815L56.5338 42.1543H56.487V37.8359H55.2389V44H56.487Z" fill="#ABABAB"/>
</g>
</g>
</g>
</svg>
